<?xml version="1.0" encoding="UTF-8" standalone="no"?>
<svg
   width="203.27084mm"
   height="109.34375mm"
   viewBox="0 0 203.27084 109.34375"
   version="1.1"
   id="svg8"
   inkscape:version="1.1 (c68e22c387, 2021-05-23)"
   sodipodi:docname="suspension.svg"
   xmlns:inkscape="http://www.inkscape.org/namespaces/inkscape"
   xmlns:sodipodi="http://sodipodi.sourceforge.net/DTD/sodipodi-0.dtd"
   xmlns:xlink="http://www.w3.org/1999/xlink"
   xmlns="http://www.w3.org/2000/svg"
   xmlns:svg="http://www.w3.org/2000/svg"
   xmlns:rdf="http://www.w3.org/1999/02/22-rdf-syntax-ns#"
   xmlns:cc="http://creativecommons.org/ns#"
   xmlns:dc="http://purl.org/dc/elements/1.1/">
  <defs
     id="defs2">
    <inkscape:path-effect
       effect="bspline"
       id="path-effect1019"
       is_visible="true"
       lpeversion="1"
       weight="33.333333"
       steps="2"
       helper_size="0"
       apply_no_weight="true"
       apply_with_weight="true"
       only_selected="false" />
    <inkscape:path-effect
       effect="bspline"
       id="path-effect1015"
       is_visible="true"
       lpeversion="1"
       weight="33.333333"
       steps="2"
       helper_size="0"
       apply_no_weight="true"
       apply_with_weight="true"
       only_selected="false" />
    <inkscape:path-effect
       effect="bspline"
       id="path-effect1011"
       is_visible="true"
       lpeversion="1"
       weight="33.333333"
       steps="2"
       helper_size="0"
       apply_no_weight="true"
       apply_with_weight="true"
       only_selected="false" />
    <inkscape:path-effect
       effect="bspline"
       id="path-effect1007"
       is_visible="true"
       lpeversion="1"
       weight="33.333333"
       steps="2"
       helper_size="0"
       apply_no_weight="true"
       apply_with_weight="true"
       only_selected="false" />
    <inkscape:path-effect
       effect="bspline"
       id="path-effect1003"
       is_visible="true"
       lpeversion="1"
       weight="33.333333"
       steps="2"
       helper_size="0"
       apply_no_weight="true"
       apply_with_weight="true"
       only_selected="false" />
    <inkscape:path-effect
       effect="bspline"
       id="path-effect999"
       is_visible="true"
       lpeversion="1"
       weight="33.333333"
       steps="2"
       helper_size="0"
       apply_no_weight="true"
       apply_with_weight="true"
       only_selected="false" />
    <inkscape:path-effect
       effect="bspline"
       id="path-effect995"
       is_visible="true"
       lpeversion="1"
       weight="33.333333"
       steps="2"
       helper_size="0"
       apply_no_weight="true"
       apply_with_weight="true"
       only_selected="false" />
    <inkscape:path-effect
       effect="bspline"
       id="path-effect991"
       is_visible="true"
       lpeversion="1"
       weight="33.333333"
       steps="2"
       helper_size="0"
       apply_no_weight="true"
       apply_with_weight="true"
       only_selected="false" />
    <inkscape:path-effect
       effect="bspline"
       id="path-effect987"
       is_visible="true"
       lpeversion="1"
       weight="33.333333"
       steps="2"
       helper_size="0"
       apply_no_weight="true"
       apply_with_weight="true"
       only_selected="false" />
    <inkscape:path-effect
       effect="bspline"
       id="path-effect983"
       is_visible="true"
       lpeversion="1"
       weight="33.333333"
       steps="2"
       helper_size="0"
       apply_no_weight="true"
       apply_with_weight="true"
       only_selected="false" />
    <inkscape:path-effect
       effect="bspline"
       id="path-effect979"
       is_visible="true"
       lpeversion="1"
       weight="33.333333"
       steps="2"
       helper_size="0"
       apply_no_weight="true"
       apply_with_weight="true"
       only_selected="false" />
    <inkscape:path-effect
       effect="bspline"
       id="path-effect957"
       is_visible="true"
       lpeversion="1"
       weight="33.333333"
       steps="2"
       helper_size="0"
       apply_no_weight="true"
       apply_with_weight="true"
       only_selected="false" />
    <inkscape:path-effect
       effect="bspline"
       id="path-effect953"
       is_visible="true"
       lpeversion="1"
       weight="33.333333"
       steps="2"
       helper_size="0"
       apply_no_weight="true"
       apply_with_weight="true"
       only_selected="false" />
    <inkscape:path-effect
       effect="bspline"
       id="path-effect949"
       is_visible="true"
       lpeversion="1"
       weight="33.333333"
       steps="2"
       helper_size="0"
       apply_no_weight="true"
       apply_with_weight="true"
       only_selected="false" />
    <inkscape:path-effect
       effect="bspline"
       id="path-effect941"
       is_visible="true"
       lpeversion="1"
       weight="33.333333"
       steps="2"
       helper_size="0"
       apply_no_weight="true"
       apply_with_weight="true"
       only_selected="false" />
    <inkscape:path-effect
       effect="bspline"
       id="path-effect937"
       is_visible="true"
       lpeversion="1"
       weight="33.333333"
       steps="2"
       helper_size="0"
       apply_no_weight="true"
       apply_with_weight="true"
       only_selected="false" />
    <inkscape:path-effect
       effect="bspline"
       id="path-effect933"
       is_visible="true"
       lpeversion="1"
       weight="33.333333"
       steps="2"
       helper_size="0"
       apply_no_weight="true"
       apply_with_weight="true"
       only_selected="false" />
    <inkscape:path-effect
       effect="bspline"
       id="path-effect929"
       is_visible="true"
       lpeversion="1"
       weight="33.333333"
       steps="2"
       helper_size="0"
       apply_no_weight="true"
       apply_with_weight="true"
       only_selected="false" />
    <inkscape:path-effect
       effect="bspline"
       id="path-effect925"
       is_visible="true"
       lpeversion="1"
       weight="33.333333"
       steps="2"
       helper_size="0"
       apply_no_weight="true"
       apply_with_weight="true"
       only_selected="false" />
    <inkscape:path-effect
       effect="bspline"
       id="path-effect921"
       is_visible="true"
       lpeversion="1"
       weight="33.333333"
       steps="2"
       helper_size="0"
       apply_no_weight="true"
       apply_with_weight="true"
       only_selected="false" />
    <inkscape:path-effect
       effect="bspline"
       id="path-effect901"
       is_visible="true"
       lpeversion="1"
       weight="33.333333"
       steps="2"
       helper_size="0"
       apply_no_weight="true"
       apply_with_weight="true"
       only_selected="false" />
    <inkscape:path-effect
       effect="bspline"
       id="path-effect890"
       is_visible="true"
       lpeversion="1"
       weight="33.333333"
       steps="2"
       helper_size="0"
       apply_no_weight="true"
       apply_with_weight="true"
       only_selected="false" />
    <inkscape:path-effect
       effect="bspline"
       id="path-effect871"
       is_visible="true"
       lpeversion="1"
       weight="33.333333"
       steps="2"
       helper_size="0"
       apply_no_weight="true"
       apply_with_weight="true"
       only_selected="false" />
    <inkscape:path-effect
       effect="bspline"
       id="path-effect867"
       is_visible="true"
       lpeversion="1"
       weight="33.333333"
       steps="2"
       helper_size="0"
       apply_no_weight="true"
       apply_with_weight="true"
       only_selected="false" />
    <inkscape:path-effect
       effect="bspline"
       id="path-effect863"
       is_visible="true"
       lpeversion="1"
       weight="33.333333"
       steps="2"
       helper_size="0"
       apply_no_weight="true"
       apply_with_weight="true"
       only_selected="false" />
    <g
       id="g3746">
      <symbol
         overflow="visible"
         id="symbol885">
        <path
           style="stroke:none"
           d=""
           id="path5236" />
      </symbol>
      <symbol
         overflow="visible"
         id="symbol1121">
        <path
           style="stroke:none"
           d="M 4.828125,-4.09375 4,-6.078125 c -0.03125,-0.078125 -0.046875,-0.125 -0.046875,-0.125 0,-0.0625 0.15625,-0.25 0.578125,-0.296875 0.109375,-0.015625 0.203125,-0.015625 0.203125,-0.1875 0,-0.125 -0.125,-0.125 -0.15625,-0.125 -0.40625,0 -0.828125,0.03125 -1.25,0.03125 -0.25,0 -0.859375,-0.03125 -1.109375,-0.03125 -0.0625,0 -0.1875,0 -0.1875,0.203125 C 2.03125,-6.5 2.140625,-6.5 2.265625,-6.5 c 0.59375,0 0.65625,0.09375 0.75,0.3125 l 1.171875,2.78125 -2.109375,2.265625 -0.125,0.109375 C 1.46875,-0.5 1,-0.34375 0.484375,-0.3125 c -0.125,0.015625 -0.21875,0.015625 -0.21875,0.203125 0,0.015625 0,0.109375 0.140625,0.109375 0.296875,0 0.625,-0.03125 0.921875,-0.03125 C 1.703125,-0.03125 2.09375,0 2.453125,0 2.515625,0 2.625,0 2.625,-0.203125 2.625,-0.296875 2.53125,-0.3125 2.515625,-0.3125 c -0.09375,0 -0.40625,-0.03125 -0.40625,-0.3125 0,-0.15625 0.15625,-0.3125 0.265625,-0.4375 L 3.40625,-2.140625 4.296875,-3.125 l 1,2.390625 c 0.046875,0.109375 0.0625,0.109375 0.0625,0.140625 0,0.078125 -0.203125,0.25 -0.578125,0.28125 C 4.671875,-0.296875 4.578125,-0.296875 4.578125,-0.125 4.578125,0 4.6875,0 4.71875,0 5,0 5.703125,-0.03125 5.984375,-0.03125 6.234375,-0.03125 6.84375,0 7.09375,0 c 0.0625,0 0.1875,0 0.1875,-0.1875 0,-0.125 -0.109375,-0.125 -0.1875,-0.125 -0.65625,0 -0.6875,-0.03125 -0.859375,-0.4375 C 5.859375,-1.671875 5.1875,-3.234375 4.953125,-3.828125 5.625,-4.53125 6.671875,-5.71875 7,-5.984375 7.28125,-6.234375 7.671875,-6.46875 8.265625,-6.5 c 0.125,-0.015625 0.21875,-0.015625 0.21875,-0.203125 0,0 0,-0.109375 -0.125,-0.109375 -0.296875,0 -0.640625,0.03125 -0.9375,0.03125 -0.375,0 -0.75,-0.03125 -1.109375,-0.03125 -0.0625,0 -0.1875,0 -0.1875,0.203125 0,0.0625 0.046875,0.09375 0.109375,0.109375 0.09375,0.015625 0.40625,0.03125 0.40625,0.3125 0,0.140625 -0.109375,0.265625 -0.1875,0.359375 z m 0,0"
           id="path7906" />
      </symbol>
    </g>
    <g
       id="g5508">
      <symbol
         overflow="visible"
         id="symbol6719">
        <path
           style="stroke:none"
           d=""
           id="path1564" />
      </symbol>
      <symbol
         overflow="visible"
         id="symbol1898">
        <path
           style="stroke:none"
           d="m 3.703125,-3.25 c 0.09375,-0.09375 0.09375,-0.140625 0.09375,-0.15625 0,-0.046875 -0.03125,-0.109375 -0.0625,-0.140625 L 1.6875,-6.5 h 2.296875 c 1.6875,0 2.1875,0.359375 2.390625,1.9375 h 0.25 l -0.28125,-2.25 H 0.8125 c -0.234375,0 -0.25,0 -0.25,0.234375 l 2.484375,3.609375 -2.375,2.703125 C 0.5625,-0.15625 0.5625,-0.140625 0.5625,-0.109375 0.5625,0 0.671875,0 0.8125,0 H 6.34375 L 6.625,-2.359375 h -0.25 c -0.171875,1.671875 -0.859375,1.9375 -2.421875,1.9375 h -2.75 z m 0,0"
           id="path6295" />
      </symbol>
      <symbol
         overflow="visible"
         id="symbol6899">
        <path
           style="stroke:none"
           d=""
           id="path4105" />
      </symbol>
      <symbol
         overflow="visible"
         id="symbol3454">
        <path
           style="stroke:none"
           d="M 4.828125,-4.09375 4,-6.078125 c -0.03125,-0.078125 -0.046875,-0.125 -0.046875,-0.125 0,-0.0625 0.15625,-0.25 0.578125,-0.296875 0.109375,-0.015625 0.203125,-0.015625 0.203125,-0.1875 0,-0.125 -0.125,-0.125 -0.15625,-0.125 -0.40625,0 -0.828125,0.03125 -1.25,0.03125 -0.25,0 -0.859375,-0.03125 -1.109375,-0.03125 -0.0625,0 -0.1875,0 -0.1875,0.203125 C 2.03125,-6.5 2.140625,-6.5 2.265625,-6.5 c 0.59375,0 0.65625,0.09375 0.75,0.3125 l 1.171875,2.78125 -2.109375,2.265625 -0.125,0.109375 C 1.46875,-0.5 1,-0.34375 0.484375,-0.3125 c -0.125,0.015625 -0.21875,0.015625 -0.21875,0.203125 0,0.015625 0,0.109375 0.140625,0.109375 0.296875,0 0.625,-0.03125 0.921875,-0.03125 C 1.703125,-0.03125 2.09375,0 2.453125,0 2.515625,0 2.625,0 2.625,-0.203125 2.625,-0.296875 2.53125,-0.3125 2.515625,-0.3125 c -0.09375,0 -0.40625,-0.03125 -0.40625,-0.3125 0,-0.15625 0.15625,-0.3125 0.265625,-0.4375 L 3.40625,-2.140625 4.296875,-3.125 l 1,2.390625 c 0.046875,0.109375 0.0625,0.109375 0.0625,0.140625 0,0.078125 -0.203125,0.25 -0.578125,0.28125 C 4.671875,-0.296875 4.578125,-0.296875 4.578125,-0.125 4.578125,0 4.6875,0 4.71875,0 5,0 5.703125,-0.03125 5.984375,-0.03125 6.234375,-0.03125 6.84375,0 7.09375,0 c 0.0625,0 0.1875,0 0.1875,-0.1875 0,-0.125 -0.109375,-0.125 -0.1875,-0.125 -0.65625,0 -0.6875,-0.03125 -0.859375,-0.4375 C 5.859375,-1.671875 5.1875,-3.234375 4.953125,-3.828125 5.625,-4.53125 6.671875,-5.71875 7,-5.984375 7.28125,-6.234375 7.671875,-6.46875 8.265625,-6.5 c 0.125,-0.015625 0.21875,-0.015625 0.21875,-0.203125 0,0 0,-0.109375 -0.125,-0.109375 -0.296875,0 -0.640625,0.03125 -0.9375,0.03125 -0.375,0 -0.75,-0.03125 -1.109375,-0.03125 -0.0625,0 -0.1875,0 -0.1875,0.203125 0,0.0625 0.046875,0.09375 0.109375,0.109375 0.09375,0.015625 0.40625,0.03125 0.40625,0.3125 0,0.140625 -0.109375,0.265625 -0.1875,0.359375 z m 0,0"
           id="path4345" />
      </symbol>
    </g>
  </defs>
  <sodipodi:namedview
     id="base"
     pagecolor="#ffffff"
     bordercolor="#666666"
     borderopacity="1.0"
     inkscape:pageopacity="0.0"
     inkscape:pageshadow="2"
     inkscape:zoom="1.4142136"
     inkscape:cx="342.59324"
     inkscape:cy="221.67798"
     inkscape:document-units="mm"
     inkscape:current-layer="layer1"
     inkscape:document-rotation="0"
     showgrid="false"
     inkscape:window-width="1920"
     inkscape:window-height="1051"
     inkscape:window-x="-9"
     inkscape:window-y="-9"
     inkscape:window-maximized="1"
     showguides="true"
     inkscape:guide-bbox="true"
     inkscape:pagecheckerboard="0" />
  <metadata
     id="metadata5">
    <rdf:RDF>
      <cc:Work
         rdf:about="">
        <dc:format>image/svg+xml</dc:format>
        <dc:type
           rdf:resource="http://purl.org/dc/dcmitype/StillImage" />
        <dc:title />
      </cc:Work>
    </rdf:RDF>
  </metadata>
  <g
     inkscape:label="Layer 1"
     inkscape:groupmode="layer"
     id="layer1"
     transform="translate(40.516668,-40.445834)">
    <path
       style="fill:none;stroke:#000000;stroke-width:0.5;stroke-linecap:round;stroke-linejoin:round;stroke-miterlimit:4;stroke-dasharray:0.5, 1;stroke-dashoffset:0;stroke-opacity:1"
       d="M 59.444004,148.06348 C 49.865877,123.8875 40.287665,99.711298 30.709374,75.534901"
       id="path1009"
       inkscape:path-effect="#path-effect1011"
       inkscape:original-d="M 59.444004,148.06348 C 49.866017,123.88744 40.287805,99.711242 30.709374,75.534901"
       sodipodi:nodetypes="cc" />
    <path
       style="fill:none;stroke:#000000;stroke-width:0.5;stroke-linecap:round;stroke-linejoin:round;stroke-miterlimit:4;stroke-dasharray:0.5, 1;stroke-dashoffset:0;stroke-opacity:1"
       d="M 55.66798,73.485282 C 56.92664,63.174723 58.185316,52.864037 59.444007,42.553227"
       id="path939"
       inkscape:path-effect="#path-effect941"
       inkscape:original-d="m 55.66798,73.485282 c 1.258898,-10.31053 2.517575,-20.621216 3.776027,-30.932055"
       sodipodi:nodetypes="cc" />
    <path
       style="fill:none;stroke:#000000;stroke-width:0.5;stroke-linecap:round;stroke-linejoin:round;stroke-miterlimit:4;stroke-dasharray:0.5, 1;stroke-dashoffset:0;stroke-opacity:1"
       d="M 84.322189,75.428382 C 76.029615,64.4702 67.73689,53.511818 59.444007,42.553227"
       id="path947"
       inkscape:path-effect="#path-effect949"
       inkscape:original-d="M 84.322189,75.428382 C 76.029681,64.47015 67.736958,53.511766 59.444007,42.553227"
       sodipodi:nodetypes="cc" />
    <path
       style="fill:none;stroke:#000000;stroke-width:0.5;stroke-linecap:round;stroke-linejoin:round;stroke-miterlimit:4;stroke-dasharray:0.5, 1;stroke-dashoffset:0;stroke-opacity:1"
       d="M 6.5512095,83.996454 C 24.182305,105.35233 41.813238,126.70801 59.444004,148.06348"
       id="path989"
       inkscape:path-effect="#path-effect991"
       inkscape:original-d="M 6.5512095,83.996454 C 24.182362,105.35228 41.813293,126.70796 59.444004,148.06348"
       sodipodi:nodetypes="cc" />
    <path
       style="fill:none;stroke:#000000;stroke-width:0.5;stroke-linecap:round;stroke-linejoin:round;stroke-miterlimit:4;stroke-dasharray:0.5, 1;stroke-dashoffset:0;stroke-opacity:1"
       d="m 55.66798,73.485282 c 1.258683,24.859571 2.517357,49.718958 3.776024,74.578198"
       id="path993"
       inkscape:path-effect="#path-effect995"
       inkscape:original-d="m 55.66798,73.485282 c 1.258897,24.85956 2.517572,49.718948 3.776024,74.578198"
       sodipodi:nodetypes="cc" />
    <path
       style="fill:none;stroke:#000000;stroke-width:0.5;stroke-linecap:round;stroke-linejoin:round;stroke-miterlimit:4;stroke-dasharray:0.5, 1;stroke-dashoffset:0;stroke-opacity:1"
       d="M 84.322189,75.428382 C 76.029438,99.640149 67.73671,123.85185 59.444004,148.06348"
       id="path997"
       inkscape:path-effect="#path-effect999"
       inkscape:original-d="M 84.322189,75.428382 C 76.029681,99.640232 67.736956,123.85193 59.444004,148.06348" />
    <path
       style="fill:none;stroke:#000000;stroke-width:0.5;stroke-linecap:round;stroke-linejoin:round;stroke-miterlimit:4;stroke-dasharray:0.5, 1;stroke-dashoffset:0;stroke-opacity:1"
       d="M 116.01424,88.802856 C 97.157525,108.55637 78.300789,128.3099 59.444004,148.06348"
       id="path1001"
       inkscape:path-effect="#path-effect1003"
       inkscape:original-d="M 116.01424,88.802856 C 97.157719,108.55655 78.30098,128.31008 59.444004,148.06348" />
    <path
       style="fill:none;stroke:#000000;stroke-width:0.5;stroke-linecap:round;stroke-linejoin:round;stroke-miterlimit:4;stroke-dasharray:0.5, 1;stroke-dashoffset:0;stroke-opacity:1"
       d="M 30.688707,75.558401 C 40.217549,64.621483 49.855948,53.558819 59.439538,42.559063"
       id="path1005"
       inkscape:path-effect="#path-effect1007"
       inkscape:original-d="M 30.688707,75.558401 C 40.217752,64.621659 49.856151,53.558996 59.439538,42.559063"
       sodipodi:nodetypes="cc" />
    <path
       style="fill:none;stroke:#000000;stroke-width:0.5;stroke-linecap:round;stroke-linejoin:round;stroke-miterlimit:4;stroke-dasharray:none;stroke-opacity:1"
       d="M 59.444007,42.553227 C 41.813137,56.367587 24.182206,70.181995 6.5512095,83.996454"
       id="path923"
       inkscape:path-effect="#path-effect925"
       inkscape:original-d="M 59.444007,42.553227 C 41.813297,56.367791 24.182365,70.182197 6.5512095,83.996454"
       sodipodi:nodetypes="cc" />
    <path
       style="fill:none;stroke:#000000;stroke-width:0.5;stroke-linecap:round;stroke-linejoin:round;stroke-miterlimit:4;stroke-dasharray:none;stroke-opacity:1"
       d="M 116.01424,88.802856 C 97.148899,73.382449 78.297983,57.973833 59.43954,42.559064"
       id="path951"
       inkscape:path-effect="#path-effect953"
       inkscape:original-d="M 116.01424,88.802856 C 97.148913,73.382432 78.297997,57.973816 59.43954,42.559064"
       sodipodi:nodetypes="cc" />
    <g
       id="g2229"
       style="opacity:0.576547;fill:#ff9955;stroke-width:0.969746"
       transform="matrix(1.0311863,0,0,1.0312087,-1.4453706,-3.0677275)">
      <path
         id="path1072"
         style="opacity:1;fill:#ff9955;stroke:#ff6600;stroke-width:0.969746;stroke-linecap:round;stroke-linejoin:round;stroke-miterlimit:4;stroke-dasharray:none;stroke-opacity:1"
         d="m 105.89211,85.022617 c 4.06249,1.275302 7.9451,3.425639 10.17397,6.176188 2.22886,2.750548 2.80406,6.101078 1.22225,8.251358 -1.58181,2.150277 -5.32062,3.100427 -10.49759,3.775567 -5.17697,0.67514 -11.791797,1.0752 -19.485359,1.35025 -7.693563,0.27506 -16.465393,0.42508 -21.31878,0.0751 -4.853387,-0.34998 -5.788085,-1.20011 -5.069084,-2.20042 0.719001,-1.0003 3.091708,-2.15048 4.997107,-3.150665 1.905399,-1.000186 3.343401,-1.85032 2.624427,-2.500396 -0.718975,-0.650076 -3.594987,-1.100147 -6.111604,-1.025168 -2.516617,0.07498 -4.673625,0.675074 -7.837348,1.675263 -3.163722,1.000189 -7.333937,2.40041 -12.726608,3.525636 -5.392671,1.12521 -12.007496,1.97535 -16.932773,2.1004 -4.925277,0.12505 -8.160788,-0.47505 -10.785229,-1.47519 -2.624441,-1.00013 -4.6376517,-2.400352 -6.1835907,-3.950615 -1.545939,-1.550263 -2.624446,-3.250535 -3.127824,-4.900877 -0.503378,-1.650341 -0.431479,-3.250591 0.143755,-4.700939 0.575234,-1.450349 1.653739,-2.750554 2.804238,-3.650737 1.150498,-0.900184 2.3728037,-1.400265 3.6311347,-1.675291 1.258331,-0.275027 2.552535,-0.325034 5.716205,-0.575083 m 0,0 c 3.16367,-0.250049 8.19679,-0.70013 12.331184,-0.725107 4.134395,-0.02498 7.369907,0.375087 9.469336,0.323514 2.099429,-0.05157 3.062772,-0.554674 1.876435,-1.279755 -1.186337,-0.725081 -4.52241,-1.672199 -6.657858,-2.44579 -2.135448,-0.77359 -3.070152,-1.373685 -2.81853,-1.998902 0.251621,-0.625216 1.689626,-1.275319 4.026508,-1.650362 2.336882,-0.375043 5.572393,-0.475059 10.605585,-0.400036 5.033192,0.07502 11.863716,0.325063 18.658497,0.650127 6.794781,0.325065 13.553402,0.725128 17.687766,1.375311 4.134365,0.650184 5.644273,1.550328 5.931778,2.425406 0.287505,0.875078 -0.647201,1.725213 3.4e-5,2.475406 0.647231,0.750193 2.876141,1.400295 6.111761,1.925369 3.23562,0.525074 7.477717,0.925136 11.540207,2.200438" />
    </g>
    <g
       inkscape:label=""
       transform="matrix(0.78087926,0,0,0.78089621,17.246308,34.45651)"
       id="g1521"
       style="stroke-width:1.2806">
      <g
         id="g8753"
         style="stroke-width:1.2806">
        <g
           style="fill:#000000;fill-opacity:1;stroke-width:1.2806"
           id="g17">
          <use
             xlink:href="#symbol1121"
             x="91.925003"
             y="81.962997"
             id="use4106"
             width="100%"
             height="100%"
             style="stroke-width:1.2806" />
        </g>
      </g>
    </g>
    <g
       inkscape:label=""
       transform="matrix(0.81091611,0,0,0.81093371,14.349661,-3.6970345)"
       id="g1686"
       style="stroke-width:1.23316">
      <g
         id="g9251"
         style="stroke-width:1.23316">
        <g
           style="fill:#000000;fill-opacity:1;stroke-width:1.23316"
           id="g7794">
          <use
             xlink:href="#symbol1898"
             x="91.925003"
             y="81.962997"
             id="use2864"
             width="100%"
             height="100%"
             style="stroke-width:1.23316" />
        </g>
        <g
           style="fill:#000000;fill-opacity:1;stroke-width:1.23316"
           id="g3731">
          <use
             xlink:href="#symbol3454"
             x="99.121002"
             y="81.962997"
             id="use5309"
             width="100%"
             height="100%"
             style="stroke-width:1.23316" />
        </g>
      </g>
    </g>
    <g
       id="g2615"
       style="opacity:1;fill:none;stroke-width:0.969746"
       transform="matrix(1.0311863,0,0,1.0312087,-1.4453706,-3.0677275)">
      <path
         id="path2613"
         style="opacity:1;fill:none;stroke:#ff6600;stroke-width:0.969746;stroke-linecap:round;stroke-linejoin:round;stroke-miterlimit:4;stroke-dasharray:none;stroke-opacity:1"
         d="m 105.89211,85.022617 c 4.06249,1.275302 7.9451,3.425639 10.17397,6.176188 2.22886,2.750548 2.80406,6.101078 1.22225,8.251358 -1.58181,2.150277 -5.32062,3.100427 -10.49759,3.775567 -5.17697,0.67514 -11.791797,1.0752 -19.485359,1.35025 -7.693563,0.27506 -16.465393,0.42508 -21.31878,0.0751 -4.853387,-0.34998 -5.788085,-1.20011 -5.069084,-2.20042 0.719001,-1.0003 3.091708,-2.15048 4.997107,-3.150665 1.905399,-1.000186 3.343401,-1.85032 2.624427,-2.500396 -0.718975,-0.650076 -3.594987,-1.100147 -6.111604,-1.025168 -2.516617,0.07498 -4.673625,0.675074 -7.837348,1.675263 -3.163722,1.000189 -7.333937,2.40041 -12.726608,3.525636 -5.392671,1.12521 -12.007496,1.97535 -16.932773,2.1004 -4.925277,0.12505 -8.160788,-0.47505 -10.785229,-1.47519 -2.624441,-1.00013 -4.6376517,-2.400352 -6.1835907,-3.950615 -1.545939,-1.550263 -2.624446,-3.250535 -3.127824,-4.900877 -0.503378,-1.650341 -0.431479,-3.250591 0.143755,-4.700939 0.575234,-1.450349 1.653739,-2.750554 2.804238,-3.650737 1.150498,-0.900184 2.3728037,-1.400265 3.6311347,-1.675291 1.258331,-0.275027 2.552535,-0.325034 5.716205,-0.575083 m 0,0 c 3.16367,-0.250049 8.19679,-0.70013 12.331184,-0.725107 4.134395,-0.02498 7.369907,0.375087 9.469336,0.323514 2.099429,-0.05157 3.062772,-0.554674 1.876435,-1.279755 -1.186337,-0.725081 -4.52241,-1.672199 -6.657858,-2.44579 -2.135448,-0.77359 -3.070152,-1.373685 -2.81853,-1.998902 0.251621,-0.625216 1.689626,-1.275319 4.026508,-1.650362 2.336882,-0.375043 5.572393,-0.475059 10.605585,-0.400036 5.033192,0.07502 11.863716,0.325063 18.658497,0.650127 6.794781,0.325065 13.553402,0.725128 17.687766,1.375311 4.134365,0.650184 5.644273,1.550328 5.931778,2.425406 0.287505,0.875078 -0.647201,1.725213 3.4e-5,2.475406 0.647231,0.750193 2.876141,1.400295 6.111761,1.925369 3.23562,0.525074 7.477717,0.925136 11.540207,2.200438" />
    </g>
    <path
       style="fill:none;stroke:#000000;stroke-width:0.5;stroke-linecap:round;stroke-linejoin:round;stroke-miterlimit:4;stroke-dasharray:none;stroke-dashoffset:0;stroke-opacity:1"
       d="M 82.238693,104.9597 C 74.639053,84.1597 67.039335,63.359487 59.43954,42.559064"
       id="path927"
       inkscape:path-effect="#path-effect929"
       inkscape:original-d="M 82.238693,104.9597 C 74.639202,84.159646 67.039482,63.359433 59.43954,42.559064"
       sodipodi:nodetypes="cc" />
    <path
       style="fill:none;stroke:#000000;stroke-width:0.5;stroke-linecap:round;stroke-linejoin:round;stroke-miterlimit:4;stroke-dasharray:none;stroke-opacity:1"
       d="M 31.980786,102.63694 C 41.13517,82.609085 50.289579,62.581178 59.444007,42.553227"
       id="path935"
       inkscape:path-effect="#path-effect937"
       inkscape:original-d="M 31.980786,102.63694 C 41.135415,82.609197 50.289822,62.581289 59.444007,42.553227"
       sodipodi:nodetypes="cc" />
    <path
       style="fill:none;stroke:#000000;stroke-width:0.5;stroke-linecap:round;stroke-linejoin:round;stroke-miterlimit:4;stroke-dasharray:none;stroke-opacity:1"
       d="M 119.37352,99.805052 C 99.347143,80.673466 79.420705,61.637354 59.444007,42.553227"
       id="path955"
       inkscape:path-effect="#path-effect957"
       inkscape:original-d="M 119.37352,99.805052 C 99.347176,80.673431 79.420736,61.637321 59.444007,42.553227"
       sodipodi:nodetypes="cc" />
    <path
       style="fill:none;stroke:#000000;stroke-width:0.5;stroke-linecap:round;stroke-linejoin:round;stroke-miterlimit:4;stroke-dasharray:none;stroke-opacity:1"
       d="M 6.1642114,96.982556 C 23.924174,78.839415 41.684107,60.696304 59.444007,42.553227"
       id="path1017"
       inkscape:path-effect="#path-effect1019"
       inkscape:original-d="M 6.1642114,96.982556 C 23.924365,78.839602 41.684298,60.696491 59.444007,42.553227" />
    <path
       style="fill:none;stroke:#000000;stroke-width:0.5;stroke-linecap:round;stroke-linejoin:round;stroke-miterlimit:4;stroke-dasharray:none;stroke-opacity:1"
       d="M 119.37352,99.805052 C 99.397079,115.89114 79.420572,131.97729 59.444004,148.06348"
       id="path977"
       inkscape:path-effect="#path-effect979"
       inkscape:original-d="M 119.37352,99.805052 C 99.397246,115.89135 79.420736,131.97749 59.444004,148.06348"
       sodipodi:nodetypes="cc" />
    <path
       style="fill:none;stroke:#000000;stroke-width:0.5;stroke-linecap:round;stroke-linejoin:round;stroke-miterlimit:4;stroke-dasharray:none;stroke-opacity:1"
       d="m 82.238693,104.9597 c -7.598244,14.36795 -15.196479,28.73589 -22.794689,43.10378"
       id="path981"
       inkscape:path-effect="#path-effect983"
       inkscape:original-d="m 82.238693,104.9597 c -7.598004,14.36808 -15.196234,28.73602 -22.794689,43.10378"
       sodipodi:nodetypes="cc" />
    <path
       style="fill:none;stroke:#000000;stroke-width:0.5;stroke-linecap:round;stroke-linejoin:round;stroke-miterlimit:4;stroke-dasharray:none;stroke-opacity:1"
       d="m 31.980786,102.63694 c 9.154536,15.14239 18.308938,30.28457 27.463218,45.42654"
       id="path985"
       inkscape:path-effect="#path-effect987"
       inkscape:original-d="m 31.980786,102.63694 c 9.154626,15.14234 18.309034,30.28451 27.463218,45.42654"
       sodipodi:nodetypes="cc" />
    <path
       style="fill:none;stroke:#000000;stroke-width:0.5;stroke-linecap:round;stroke-linejoin:round;stroke-miterlimit:4;stroke-dasharray:none;stroke-opacity:1"
       d="M 59.444004,148.06348 C 41.684267,131.03669 23.924333,114.00971 6.1642114,96.982556"
       id="path1013"
       inkscape:path-effect="#path-effect1015"
       inkscape:original-d="M 59.444004,148.06348 C 41.684296,131.03666 23.924365,114.00968 6.1642114,96.982556" />
  </g>
</svg>
