<svg xmlns="http://www.w3.org/2000/svg" xmlns:xlink="http://www.w3.org/1999/xlink" x="0" y="0" width="662" height="263.3333333333333" style="
        width:662px;
        height:263.3333333333333px;
        background: transparent;
        fill: none;
">
        
        
        <svg xmlns="http://www.w3.org/2000/svg" class="role-diagram-draw-area"><g class="shapes-region" style="stroke: black; fill: none;"><g class="composite-shape"><path class="real" d=" M180.42,110 C180.28,110 180.14,110 180,110 C163.43,110 150,87.61 150,60 C150,32.39 163.43,10 180,10 C180.16,10 180.32,10 180.48,10.01 L180,60 Z" style="stroke-width: 1px; stroke: none; fill: none; fill-opacity: 1;"/><path class="real" d=" M180.42,110 C180.28,110 180.14,110 180,110 C163.43,110 150,87.61 150,60 C150,32.39 163.43,10 180,10 C180.16,10 180.32,10 180.48,10.01" style="stroke-width: 1px; stroke: rgb(0, 0, 0); fill: none; fill-opacity: 1;"/></g><g class="composite-shape"><path class="real" d=" M180.17,10.18 C180.31,10.18 180.45,10.18 180.59,10.18 C197.16,10.28 210.46,32.74 210.3,60.36 C210.13,87.97 196.57,110.28 180,110.18 C179.84,110.18 179.68,110.17 179.52,110.17 L180.3,60.18 Z" style="stroke-width: 1px; stroke: none; fill: none; fill-opacity: 1; stroke-dasharray: 1.125px, 3.35px;"/><path class="real" d=" M180.17,10.18 C180.31,10.18 180.45,10.18 180.59,10.18 C197.16,10.28 210.46,32.74 210.3,60.36 C210.13,87.97 196.57,110.28 180,110.18 C179.84,110.18 179.68,110.17 179.52,110.17" style="stroke-width: 1px; stroke: rgb(0, 0, 0); fill: none; fill-opacity: 1; stroke-dasharray: 1.125px, 3.35px;"/></g><g class="composite-shape"><path class="real" d=" M180.42,249.64 C180.28,249.64 180.14,249.64 180,249.64 C163.43,249.64 150,227.26 150,199.64 C150,172.03 163.43,149.64 180,149.64 C180.16,149.64 180.32,149.65 180.48,149.65 L180,199.64 Z" style="stroke-width: 1px; stroke: none; fill: none; fill-opacity: 1;"/><path class="real" d=" M180.42,249.64 C180.28,249.64 180.14,249.64 180,249.64 C163.43,249.64 150,227.26 150,199.64 C150,172.03 163.43,149.64 180,149.64 C180.16,149.64 180.32,149.65 180.48,149.65" style="stroke-width: 1px; stroke: rgb(0, 0, 0); fill: none; fill-opacity: 1;"/></g><g class="composite-shape"><path class="real" d=" M180.17,149.83 C180.31,149.82 180.45,149.82 180.59,149.82 C197.16,149.92 210.46,172.39 210.3,200 C210.13,227.61 196.57,249.92 180,249.82 C179.84,249.82 179.68,249.82 179.52,249.81 L180.3,199.82 Z" style="stroke-width: 1px; stroke: none; fill: none; fill-opacity: 1; stroke-dasharray: 1.125px, 3.35px;"/><path class="real" d=" M180.17,149.83 C180.31,149.82 180.45,149.82 180.59,149.82 C197.16,149.92 210.46,172.39 210.3,200 C210.13,227.61 196.57,249.92 180,249.82 C179.84,249.82 179.68,249.82 179.52,249.81" style="stroke-width: 1px; stroke: rgb(0, 0, 0); fill: none; fill-opacity: 1; stroke-dasharray: 1.125px, 3.35px;"/></g><g class="composite-shape"><path class="real" d=" M479.83,110 C479.69,110 479.55,110 479.41,110 C462.84,110 449.41,87.61 449.41,60 C449.41,32.39 462.84,10 479.41,10 C479.57,10 479.73,10 479.89,10.01 L479.41,60 Z" style="stroke-width: 1px; stroke: none; fill: none; fill-opacity: 1;"/><path class="real" d=" M479.83,110 C479.69,110 479.55,110 479.41,110 C462.84,110 449.41,87.61 449.41,60 C449.41,32.39 462.84,10 479.41,10 C479.57,10 479.73,10 479.89,10.01" style="stroke-width: 1px; stroke: rgb(0, 0, 0); fill: none; fill-opacity: 1;"/></g><g class="composite-shape"><path class="real" d=" M479.58,10.18 C479.72,10.18 479.86,10.18 480,10.18 C496.57,10.28 509.87,32.74 509.7,60.36 C509.54,87.97 495.98,110.28 479.41,110.18 C479.25,110.18 479.09,110.17 478.93,110.17 L479.7,60.18 Z" style="stroke-width: 1px; stroke: none; fill: none; fill-opacity: 1;"/><path class="real" d=" M479.58,10.18 C479.72,10.18 479.86,10.18 480,10.18 C496.57,10.28 509.87,32.74 509.7,60.36 C509.54,87.97 495.98,110.28 479.41,110.18 C479.25,110.18 479.09,110.17 478.93,110.17" style="stroke-width: 1px; stroke: rgb(0, 0, 0); fill: none; fill-opacity: 1;"/></g><g class="composite-shape"><path class="real" d=" M480.42,249.64 C480.28,249.64 480.14,249.64 480,249.64 C463.43,249.64 450,227.26 450,199.64 C450,172.03 463.43,149.64 480,149.64 C480.16,149.64 480.32,149.65 480.48,149.65 L480,199.64 Z" style="stroke-width: 1px; stroke: none; fill: none; fill-opacity: 1;"/><path class="real" d=" M480.42,249.64 C480.28,249.64 480.14,249.64 480,249.64 C463.43,249.64 450,227.26 450,199.64 C450,172.03 463.43,149.64 480,149.64 C480.16,149.64 480.32,149.65 480.48,149.65" style="stroke-width: 1px; stroke: rgb(0, 0, 0); fill: none; fill-opacity: 1;"/></g><g class="composite-shape"><path class="real" d=" M480.17,149.83 C480.31,149.82 480.45,149.82 480.59,149.82 C497.16,149.92 510.46,172.39 510.3,200 C510.13,227.61 496.57,249.92 480,249.82 C479.84,249.82 479.68,249.82 479.52,249.81 L480.3,199.82 Z" style="stroke-width: 1px; stroke: none; fill: none; fill-opacity: 1;"/><path class="real" d=" M480.17,149.83 C480.31,149.82 480.45,149.82 480.59,149.82 C497.16,149.92 510.46,172.39 510.3,200 C510.13,227.61 496.57,249.92 480,249.82 C479.84,249.82 479.68,249.82 479.52,249.81" style="stroke-width: 1px; stroke: rgb(0, 0, 0); fill: none; fill-opacity: 1;"/></g><g class="arrow-line"><path class="connection real" stroke-dasharray="" d="  M180,150 C240.37,150 284.91,115.07 330,80 C375.09,44.93 420.37,10 480,10" style="stroke: rgb(0, 0, 0); stroke-width: 1px; fill: none; fill-opacity: 1;"/></g><g class="arrow-line"><path class="connection real" stroke-dasharray="" d="  M180,250 C300.5,250 360.5,110 480,110" style="stroke: rgb(0, 0, 0); stroke-width: 1px; fill: none; fill-opacity: 1;"/></g><g class="arrow-line"><path class="connection real" stroke-dasharray="" d="  M179.33,10 C253.33,10 323.33,74 330,79.33" style="stroke: rgb(0, 0, 0); stroke-width: 1px; fill: none; fill-opacity: 1;"/></g><g class="arrow-line"><path class="connection real" stroke-dasharray="" d="  M180,110 C221.83,110.33 252.33,127.67 257.33,130" style="stroke: rgb(0, 0, 0); stroke-width: 1px; fill: none; fill-opacity: 1;"/></g><g class="arrow-line"><path class="connection real" stroke-dasharray="" d="  M330.67,180 C337.33,185.33 413.33,254 480,249.33" style="stroke: rgb(0, 0, 0); stroke-width: 1px; fill: none; fill-opacity: 1;"/></g><g class="arrow-line"><path class="connection real" stroke-dasharray="" d="  M403.33,130 C410,134 440.67,150 480,150" style="stroke: rgb(0, 0, 0); stroke-width: 1px; fill: none; fill-opacity: 1;"/></g><g class="arrow-line"><path class="connection real" stroke-dasharray="1.125 3.35" d="  M330,80 C346,91.33 382,122.67 403.33,130" style="stroke: rgb(0, 0, 0); stroke-width: 1px; fill: none; fill-opacity: 1;"/></g><g class="arrow-line"><path class="connection real" stroke-dasharray="1.125 3.35" d="  M257.33,130 C280.67,141.33 316.67,168 330.67,180" style="stroke: rgb(0, 0, 0); stroke-width: 1px; fill: none; fill-opacity: 1;"/></g><g/></g><g/><g/><g/></svg>
        <svg xmlns="http://www.w3.org/2000/svg" xmlns:xlink="http://www.w3.org/1999/xlink" width="660" height="261.3333333333333" style="width:660px;height:261.3333333333333px;font-family:Asana-Math, Asana;background:transparent;"></svg>
</svg>
