<?xml version="1.0" encoding="UTF-8" standalone="no"?>
<svg
   xmlns:dc="http://purl.org/dc/elements/1.1/"
   xmlns:cc="http://creativecommons.org/ns#"
   xmlns:rdf="http://www.w3.org/1999/02/22-rdf-syntax-ns#"
   xmlns:svg="http://www.w3.org/2000/svg"
   xmlns="http://www.w3.org/2000/svg"
   xmlns:xlink="http://www.w3.org/1999/xlink"
   xmlns:sodipodi="http://sodipodi.sourceforge.net/DTD/sodipodi-0.dtd"
   xmlns:inkscape="http://www.inkscape.org/namespaces/inkscape"
   width="143.00484mm"
   height="42.042938mm"
   viewBox="0 0 143.00484 42.042938"
   version="1.1"
   id="svg8"
   sodipodi:docname="morphism2.svg"
   inkscape:version="1.0.2 (e86c870879, 2021-01-15, custom)">
  <defs
     id="defs2">
    <marker
       style="overflow:visible"
       id="marker2877"
       refX="0"
       refY="0"
       orient="auto"
       inkscape:stockid="Arrow1Send"
       inkscape:isstock="true">
      <path
         transform="matrix(-0.2,0,0,-0.2,-1.2,0)"
         style="fill:#000000;fill-opacity:1;fill-rule:evenodd;stroke:#000000;stroke-width:1pt;stroke-opacity:1"
         d="M 0,0 5,-5 -12.5,0 5,5 Z"
         id="path2875" />
    </marker>
    <inkscape:path-effect
       effect="bspline"
       id="path-effect2873"
       is_visible="true"
       lpeversion="1"
       weight="33.333333"
       steps="2"
       helper_size="0"
       apply_no_weight="true"
       apply_with_weight="true"
       only_selected="false" />
    <marker
       style="overflow:visible"
       id="marker2763"
       refX="0"
       refY="0"
       orient="auto"
       inkscape:stockid="Arrow1Send"
       inkscape:isstock="true"
       inkscape:collect="always">
      <path
         transform="matrix(-0.2,0,0,-0.2,-1.2,0)"
         style="fill:#000000;fill-opacity:1;fill-rule:evenodd;stroke:#000000;stroke-width:1pt;stroke-opacity:1"
         d="M 0,0 5,-5 -12.5,0 5,5 Z"
         id="path2761" />
    </marker>
    <inkscape:path-effect
       effect="bspline"
       id="path-effect2759"
       is_visible="true"
       lpeversion="1"
       weight="33.333333"
       steps="2"
       helper_size="0"
       apply_no_weight="true"
       apply_with_weight="true"
       only_selected="false" />
    <marker
       style="overflow:visible"
       id="marker2651"
       refX="0"
       refY="0"
       orient="auto"
       inkscape:stockid="Arrow1Send"
       inkscape:isstock="true"
       inkscape:collect="always">
      <path
         transform="matrix(-0.2,0,0,-0.2,-1.2,0)"
         style="fill:#000000;fill-opacity:1;fill-rule:evenodd;stroke:#000000;stroke-width:1pt;stroke-opacity:1"
         d="M 0,0 5,-5 -12.5,0 5,5 Z"
         id="path2649" />
    </marker>
    <inkscape:path-effect
       effect="bspline"
       id="path-effect2647"
       is_visible="true"
       lpeversion="1"
       weight="33.333333"
       steps="2"
       helper_size="0"
       apply_no_weight="true"
       apply_with_weight="true"
       only_selected="false" />
    <marker
       style="overflow:visible"
       id="marker2571"
       refX="0"
       refY="0"
       orient="auto"
       inkscape:stockid="Arrow1Send"
       inkscape:isstock="true"
       inkscape:collect="always">
      <path
         transform="matrix(-0.2,0,0,-0.2,-1.2,0)"
         style="fill:#000000;fill-opacity:1;fill-rule:evenodd;stroke:#000000;stroke-width:1pt;stroke-opacity:1"
         d="M 0,0 5,-5 -12.5,0 5,5 Z"
         id="path2569" />
    </marker>
    <inkscape:path-effect
       effect="bspline"
       id="path-effect2561"
       is_visible="true"
       lpeversion="1"
       weight="33.333333"
       steps="2"
       helper_size="0"
       apply_no_weight="true"
       apply_with_weight="true"
       only_selected="false" />
    <marker
       style="overflow:visible"
       id="marker1800"
       refX="0"
       refY="0"
       orient="auto"
       inkscape:stockid="Arrow1Send"
       inkscape:isstock="true"
       inkscape:collect="always">
      <path
         transform="matrix(-0.2,0,0,-0.2,-1.2,0)"
         style="fill:#000000;fill-opacity:1;fill-rule:evenodd;stroke:#000000;stroke-width:1pt;stroke-opacity:1"
         d="M 0,0 5,-5 -12.5,0 5,5 Z"
         id="path1798" />
    </marker>
    <marker
       style="overflow:visible"
       id="marker1790"
       refX="0"
       refY="0"
       orient="auto"
       inkscape:stockid="Arrow1Send"
       inkscape:isstock="true">
      <path
         transform="matrix(-0.2,0,0,-0.2,-1.2,0)"
         style="fill:#000000;fill-opacity:1;fill-rule:evenodd;stroke:#000000;stroke-width:1pt;stroke-opacity:1"
         d="M 0,0 5,-5 -12.5,0 5,5 Z"
         id="path1788" />
    </marker>
    <marker
       style="overflow:visible"
       id="marker1780"
       refX="0"
       refY="0"
       orient="auto"
       inkscape:stockid="Arrow1Send"
       inkscape:isstock="true">
      <path
         transform="matrix(-0.2,0,0,-0.2,-1.2,0)"
         style="fill:#000000;fill-opacity:1;fill-rule:evenodd;stroke:#000000;stroke-width:1pt;stroke-opacity:1"
         d="M 0,0 5,-5 -12.5,0 5,5 Z"
         id="path1778" />
    </marker>
    <inkscape:path-effect
       effect="bspline"
       id="path-effect1776"
       is_visible="true"
       lpeversion="1"
       weight="33.333333"
       steps="2"
       helper_size="0"
       apply_no_weight="true"
       apply_with_weight="true"
       only_selected="false" />
    <inkscape:path-effect
       effect="bspline"
       id="path-effect1772"
       is_visible="true"
       lpeversion="1"
       weight="33.333333"
       steps="2"
       helper_size="0"
       apply_no_weight="true"
       apply_with_weight="true"
       only_selected="false" />
    <inkscape:path-effect
       effect="bspline"
       id="path-effect1768"
       is_visible="true"
       lpeversion="1"
       weight="33.333333"
       steps="2"
       helper_size="0"
       apply_no_weight="true"
       apply_with_weight="true"
       only_selected="false" />
    <marker
       style="overflow:visible"
       id="marker1646"
       refX="0"
       refY="0"
       orient="auto"
       inkscape:stockid="Arrow1Send"
       inkscape:isstock="true"
       inkscape:collect="always">
      <path
         transform="matrix(-0.2,0,0,-0.2,-1.2,0)"
         style="fill:#000000;fill-opacity:1;fill-rule:evenodd;stroke:#000000;stroke-width:1pt;stroke-opacity:1"
         d="M 0,0 5,-5 -12.5,0 5,5 Z"
         id="path1644" />
    </marker>
    <inkscape:path-effect
       effect="bspline"
       id="path-effect1642"
       is_visible="true"
       lpeversion="1"
       weight="33.333333"
       steps="2"
       helper_size="0"
       apply_no_weight="true"
       apply_with_weight="true"
       only_selected="false" />
    <marker
       style="overflow:visible"
       id="marker1582"
       refX="0"
       refY="0"
       orient="auto"
       inkscape:stockid="Arrow1Send"
       inkscape:isstock="true"
       inkscape:collect="always">
      <path
         transform="matrix(-0.2,0,0,-0.2,-1.2,0)"
         style="fill:#000000;fill-opacity:1;fill-rule:evenodd;stroke:#000000;stroke-width:1pt;stroke-opacity:1"
         d="M 0,0 5,-5 -12.5,0 5,5 Z"
         id="path1580" />
    </marker>
    <inkscape:path-effect
       effect="bspline"
       id="path-effect1578"
       is_visible="true"
       lpeversion="1"
       weight="33.333333"
       steps="2"
       helper_size="0"
       apply_no_weight="true"
       apply_with_weight="true"
       only_selected="false" />
    <marker
       style="overflow:visible"
       id="marker1496"
       refX="0"
       refY="0"
       orient="auto"
       inkscape:stockid="Arrow1Send"
       inkscape:isstock="true">
      <path
         transform="matrix(-0.2,0,0,-0.2,-1.2,0)"
         style="fill:#000000;fill-opacity:1;fill-rule:evenodd;stroke:#000000;stroke-width:1pt;stroke-opacity:1"
         d="M 0,0 5,-5 -12.5,0 5,5 Z"
         id="path1494" />
    </marker>
    <inkscape:path-effect
       effect="bspline"
       id="path-effect1492"
       is_visible="true"
       lpeversion="1"
       weight="33.333333"
       steps="2"
       helper_size="0"
       apply_no_weight="true"
       apply_with_weight="true"
       only_selected="false" />
    <marker
       style="overflow:visible"
       id="marker1350"
       refX="0"
       refY="0"
       orient="auto"
       inkscape:stockid="Arrow1Send"
       inkscape:isstock="true">
      <path
         transform="matrix(-0.2,0,0,-0.2,-1.2,0)"
         style="fill:#000000;fill-opacity:1;fill-rule:evenodd;stroke:#000000;stroke-width:1pt;stroke-opacity:1"
         d="M 0,0 5,-5 -12.5,0 5,5 Z"
         id="path1348" />
    </marker>
    <inkscape:path-effect
       effect="bspline"
       id="path-effect1258"
       is_visible="true"
       lpeversion="1"
       weight="33.333333"
       steps="2"
       helper_size="0"
       apply_no_weight="true"
       apply_with_weight="true"
       only_selected="false" />
    <inkscape:path-effect
       effect="bspline"
       id="path-effect1254"
       is_visible="true"
       lpeversion="1"
       weight="33.333333"
       steps="2"
       helper_size="0"
       apply_no_weight="true"
       apply_with_weight="true"
       only_selected="false" />
    <marker
       style="overflow:visible"
       id="Arrow1Send"
       refX="0"
       refY="0"
       orient="auto"
       inkscape:stockid="Arrow1Send"
       inkscape:isstock="true"
       inkscape:collect="always">
      <path
         transform="matrix(-0.2,0,0,-0.2,-1.2,0)"
         style="fill:#000000;fill-opacity:1;fill-rule:evenodd;stroke:#000000;stroke-width:1pt;stroke-opacity:1"
         d="M 0,0 5,-5 -12.5,0 5,5 Z"
         id="path953" />
    </marker>
    <inkscape:path-effect
       effect="bspline"
       id="path-effect936"
       is_visible="true"
       lpeversion="1"
       weight="33.333333"
       steps="2"
       helper_size="0"
       apply_no_weight="true"
       apply_with_weight="true"
       only_selected="false" />
    <g
       id="g8235">
      <symbol
         overflow="visible"
         id="symbol3292">
        <path
           style="stroke:none"
           d=""
           id="path799" />
      </symbol>
      <symbol
         overflow="visible"
         id="symbol471">
        <path
           style="stroke:none"
           d="M 1.78125,-1.140625 C 1.390625,-0.484375 1,-0.34375 0.5625,-0.3125 0.4375,-0.296875 0.34375,-0.296875 0.34375,-0.109375 0.34375,-0.046875 0.40625,0 0.484375,0 0.75,0 1.0625,-0.03125 1.328125,-0.03125 c 0.34375,0 0.6875,0.03125 1,0.03125 0.0625,0 0.1875,0 0.1875,-0.1875 0,-0.109375 -0.078125,-0.125 -0.15625,-0.125 -0.21875,-0.015625 -0.46875,-0.09375 -0.46875,-0.34375 0,-0.125 0.0625,-0.234375 0.140625,-0.375 l 0.765625,-1.265625 h 2.5 c 0.015625,0.203125 0.15625,1.5625 0.15625,1.65625 0,0.296875 -0.515625,0.328125 -0.71875,0.328125 C 4.59375,-0.3125 4.5,-0.3125 4.5,-0.109375 4.5,0 4.609375,0 4.640625,0 5.046875,0 5.46875,-0.03125 5.875,-0.03125 6.125,-0.03125 6.765625,0 7.015625,0 7.0625,0 7.1875,0 7.1875,-0.203125 7.1875,-0.3125 7.09375,-0.3125 6.953125,-0.3125 6.34375,-0.3125 6.34375,-0.375 6.3125,-0.671875 l -0.609375,-6.21875 c -0.015625,-0.203125 -0.015625,-0.25 -0.1875,-0.25 -0.15625,0 -0.203125,0.078125 -0.265625,0.171875 z M 2.984375,-2.609375 4.9375,-5.90625 5.265625,-2.609375 Z m 0,0"
           id="path7569" />
      </symbol>
    </g>
    <g
       id="g9727">
      <symbol
         overflow="visible"
         id="symbol6563">
        <path
           style="stroke:none"
           d=""
           id="path8637" />
      </symbol>
      <symbol
         overflow="visible"
         id="symbol5532">
        <path
           style="stroke:none"
           d="M 1.59375,-0.78125 C 1.5,-0.390625 1.46875,-0.3125 0.6875,-0.3125 c -0.171875,0 -0.265625,0 -0.265625,0.203125 C 0.421875,0 0.515625,0 0.6875,0 H 4.25 C 5.828125,0 7,-1.171875 7,-2.15625 7,-2.875 6.421875,-3.453125 5.453125,-3.5625 6.484375,-3.75 7.53125,-4.484375 7.53125,-5.4375 c 0,-0.734375 -0.65625,-1.375 -1.84375,-1.375 H 2.328125 c -0.1875,0 -0.28125,0 -0.28125,0.203125 0,0.109375 0.09375,0.109375 0.28125,0.109375 0.015625,0 0.203125,0 0.375,0.015625 0.171875,0.03125 0.265625,0.03125 0.265625,0.171875 0,0.03125 -0.015625,0.0625 -0.03125,0.1875 z m 1.5,-2.875 0.625,-2.46875 C 3.8125,-6.46875 3.828125,-6.5 4.25,-6.5 h 1.296875 c 0.875,0 1.078125,0.59375 1.078125,1.03125 0,0.875 -0.859375,1.8125 -2.0625,1.8125 z m -0.4375,3.34375 c -0.140625,0 -0.15625,0 -0.21875,0 -0.109375,-0.015625 -0.140625,-0.03125 -0.140625,-0.109375 0,-0.03125 0,-0.046875 0.0625,-0.21875 l 0.6875,-2.78125 h 1.875 c 0.953125,0 1.15625,0.734375 1.15625,1.15625 C 6.078125,-1.28125 5.1875,-0.3125 4,-0.3125 Z m 0,0"
           id="path3374" />
      </symbol>
    </g>
    <g
       id="g7632">
      <symbol
         overflow="visible"
         id="symbol8030">
        <path
           style="stroke:none"
           d=""
           id="path7690" />
      </symbol>
      <symbol
         overflow="visible"
         id="symbol6359">
        <path
           style="stroke:none"
           d="m 7.578125,-6.921875 c 0,-0.03125 -0.015625,-0.109375 -0.109375,-0.109375 -0.03125,0 -0.046875,0.015625 -0.15625,0.125 L 6.625,-6.140625 C 6.53125,-6.28125 6.078125,-7.03125 4.96875,-7.03125 2.734375,-7.03125 0.5,-4.828125 0.5,-2.515625 0.5,-0.875 1.671875,0.21875 3.203125,0.21875 c 0.859375,0 1.625,-0.390625 2.15625,-0.859375 0.921875,-0.8125 1.09375,-1.71875 1.09375,-1.75 C 6.453125,-2.5 6.34375,-2.5 6.328125,-2.5 c -0.0625,0 -0.109375,0.03125 -0.125,0.109375 -0.09375,0.28125 -0.328125,1 -1.015625,1.578125 -0.6875,0.546875 -1.3125,0.71875 -1.828125,0.71875 -0.890625,0 -1.953125,-0.515625 -1.953125,-2.0625 0,-0.578125 0.203125,-2.1875 1.203125,-3.359375 0.609375,-0.703125 1.546875,-1.203125 2.4375,-1.203125 1.015625,0 1.609375,0.765625 1.609375,1.921875 0,0.40625 -0.03125,0.40625 -0.03125,0.515625 0,0.09375 0.109375,0.09375 0.140625,0.09375 0.125,0 0.125,-0.015625 0.1875,-0.203125 z m 0,0"
           id="path3429" />
      </symbol>
    </g>
    <g
       id="g4714">
      <symbol
         overflow="visible"
         id="symbol12">
        <path
           style="stroke:none"
           d=""
           id="path7739" />
      </symbol>
      <symbol
         overflow="visible"
         id="symbol5627">
        <path
           style="stroke:none"
           d="m 3.703125,-3.25 c 0.09375,-0.09375 0.09375,-0.140625 0.09375,-0.15625 0,-0.046875 -0.03125,-0.109375 -0.0625,-0.140625 L 1.6875,-6.5 h 2.296875 c 1.6875,0 2.1875,0.359375 2.390625,1.9375 h 0.25 l -0.28125,-2.25 H 0.8125 c -0.234375,0 -0.25,0 -0.25,0.234375 l 2.484375,3.609375 -2.375,2.703125 C 0.5625,-0.15625 0.5625,-0.140625 0.5625,-0.109375 0.5625,0 0.671875,0 0.8125,0 H 6.34375 L 6.625,-2.359375 h -0.25 c -0.171875,1.671875 -0.859375,1.9375 -2.421875,1.9375 h -2.75 z m 0,0"
           id="path209" />
      </symbol>
      <symbol
         overflow="visible"
         id="symbol1820">
        <path
           style="stroke:none"
           d=""
           id="path6209" />
      </symbol>
      <symbol
         overflow="visible"
         id="symbol4387">
        <path
           style="stroke:none"
           d="M 1.78125,-1.140625 C 1.390625,-0.484375 1,-0.34375 0.5625,-0.3125 0.4375,-0.296875 0.34375,-0.296875 0.34375,-0.109375 0.34375,-0.046875 0.40625,0 0.484375,0 0.75,0 1.0625,-0.03125 1.328125,-0.03125 c 0.34375,0 0.6875,0.03125 1,0.03125 0.0625,0 0.1875,0 0.1875,-0.1875 0,-0.109375 -0.078125,-0.125 -0.15625,-0.125 -0.21875,-0.015625 -0.46875,-0.09375 -0.46875,-0.34375 0,-0.125 0.0625,-0.234375 0.140625,-0.375 l 0.765625,-1.265625 h 2.5 c 0.015625,0.203125 0.15625,1.5625 0.15625,1.65625 0,0.296875 -0.515625,0.328125 -0.71875,0.328125 C 4.59375,-0.3125 4.5,-0.3125 4.5,-0.109375 4.5,0 4.609375,0 4.640625,0 5.046875,0 5.46875,-0.03125 5.875,-0.03125 6.125,-0.03125 6.765625,0 7.015625,0 7.0625,0 7.1875,0 7.1875,-0.203125 7.1875,-0.3125 7.09375,-0.3125 6.953125,-0.3125 6.34375,-0.3125 6.34375,-0.375 6.3125,-0.671875 l -0.609375,-6.21875 c -0.015625,-0.203125 -0.015625,-0.25 -0.1875,-0.25 -0.15625,0 -0.203125,0.078125 -0.265625,0.171875 z M 2.984375,-2.609375 4.9375,-5.90625 5.265625,-2.609375 Z m 0,0"
           id="path5069" />
      </symbol>
    </g>
    <g
       id="g5396">
      <symbol
         overflow="visible"
         id="symbol3700">
        <path
           style="stroke:none"
           d=""
           id="path7713" />
      </symbol>
      <symbol
         overflow="visible"
         id="symbol1364">
        <path
           style="stroke:none"
           d="M 1.78125,-1.140625 C 1.390625,-0.484375 1,-0.34375 0.5625,-0.3125 0.4375,-0.296875 0.34375,-0.296875 0.34375,-0.109375 0.34375,-0.046875 0.40625,0 0.484375,0 0.75,0 1.0625,-0.03125 1.328125,-0.03125 c 0.34375,0 0.6875,0.03125 1,0.03125 0.0625,0 0.1875,0 0.1875,-0.1875 0,-0.109375 -0.078125,-0.125 -0.15625,-0.125 -0.21875,-0.015625 -0.46875,-0.09375 -0.46875,-0.34375 0,-0.125 0.0625,-0.234375 0.140625,-0.375 l 0.765625,-1.265625 h 2.5 c 0.015625,0.203125 0.15625,1.5625 0.15625,1.65625 0,0.296875 -0.515625,0.328125 -0.71875,0.328125 C 4.59375,-0.3125 4.5,-0.3125 4.5,-0.109375 4.5,0 4.609375,0 4.640625,0 5.046875,0 5.46875,-0.03125 5.875,-0.03125 6.125,-0.03125 6.765625,0 7.015625,0 7.0625,0 7.1875,0 7.1875,-0.203125 7.1875,-0.3125 7.09375,-0.3125 6.953125,-0.3125 6.34375,-0.3125 6.34375,-0.375 6.3125,-0.671875 l -0.609375,-6.21875 c -0.015625,-0.203125 -0.015625,-0.25 -0.1875,-0.25 -0.15625,0 -0.203125,0.078125 -0.265625,0.171875 z M 2.984375,-2.609375 4.9375,-5.90625 5.265625,-2.609375 Z m 0,0"
           id="path6175" />
      </symbol>
      <symbol
         overflow="visible"
         id="symbol9548">
        <path
           style="stroke:none"
           d=""
           id="path298" />
      </symbol>
      <symbol
         overflow="visible"
         id="symbol9731">
        <path
           style="stroke:none"
           d="m 2.015625,-3.296875 c 0.0625,-0.109375 0.0625,-0.171875 0.0625,-0.21875 0,-0.21875 -0.1875,-0.375 -0.40625,-0.375 -0.265625,0 -0.34375,0.21875 -0.375,0.328125 L 0.375,-0.546875 c -0.015625,0.015625 -0.046875,0.09375 -0.046875,0.109375 0,0.078125 0.21875,0.15625 0.28125,0.15625 0.046875,0 0.046875,-0.015625 0.09375,-0.125 z m 0,0"
           id="path9975" />
      </symbol>
    </g>
    <g
       id="g4233">
      <symbol
         overflow="visible"
         id="symbol9387">
        <path
           style="stroke:none"
           d=""
           id="path8695" />
      </symbol>
      <symbol
         overflow="visible"
         id="symbol127">
        <path
           style="stroke:none"
           d="M 1.59375,-0.78125 C 1.5,-0.390625 1.46875,-0.3125 0.6875,-0.3125 c -0.171875,0 -0.265625,0 -0.265625,0.203125 C 0.421875,0 0.515625,0 0.6875,0 H 4.25 C 5.828125,0 7,-1.171875 7,-2.15625 7,-2.875 6.421875,-3.453125 5.453125,-3.5625 6.484375,-3.75 7.53125,-4.484375 7.53125,-5.4375 c 0,-0.734375 -0.65625,-1.375 -1.84375,-1.375 H 2.328125 c -0.1875,0 -0.28125,0 -0.28125,0.203125 0,0.109375 0.09375,0.109375 0.28125,0.109375 0.015625,0 0.203125,0 0.375,0.015625 0.171875,0.03125 0.265625,0.03125 0.265625,0.171875 0,0.03125 -0.015625,0.0625 -0.03125,0.1875 z m 1.5,-2.875 0.625,-2.46875 C 3.8125,-6.46875 3.828125,-6.5 4.25,-6.5 h 1.296875 c 0.875,0 1.078125,0.59375 1.078125,1.03125 0,0.875 -0.859375,1.8125 -2.0625,1.8125 z m -0.4375,3.34375 c -0.140625,0 -0.15625,0 -0.21875,0 -0.109375,-0.015625 -0.140625,-0.03125 -0.140625,-0.109375 0,-0.03125 0,-0.046875 0.0625,-0.21875 l 0.6875,-2.78125 h 1.875 c 0.953125,0 1.15625,0.734375 1.15625,1.15625 C 6.078125,-1.28125 5.1875,-0.3125 4,-0.3125 Z m 0,0"
           id="path2678" />
      </symbol>
      <symbol
         overflow="visible"
         id="symbol6586">
        <path
           style="stroke:none"
           d=""
           id="path7130" />
      </symbol>
      <symbol
         overflow="visible"
         id="symbol7590">
        <path
           style="stroke:none"
           d="m 2.015625,-3.296875 c 0.0625,-0.109375 0.0625,-0.171875 0.0625,-0.21875 0,-0.21875 -0.1875,-0.375 -0.40625,-0.375 -0.265625,0 -0.34375,0.21875 -0.375,0.328125 L 0.375,-0.546875 c -0.015625,0.015625 -0.046875,0.09375 -0.046875,0.109375 0,0.078125 0.21875,0.15625 0.28125,0.15625 0.046875,0 0.046875,-0.015625 0.09375,-0.125 z m 0,0"
           id="path3723" />
      </symbol>
    </g>
    <g
       id="g8493">
      <symbol
         overflow="visible"
         id="symbol6893">
        <path
           style="stroke:none"
           d=""
           id="path772" />
      </symbol>
      <symbol
         overflow="visible"
         id="symbol388">
        <path
           style="stroke:none"
           d="m 7.578125,-6.921875 c 0,-0.03125 -0.015625,-0.109375 -0.109375,-0.109375 -0.03125,0 -0.046875,0.015625 -0.15625,0.125 L 6.625,-6.140625 C 6.53125,-6.28125 6.078125,-7.03125 4.96875,-7.03125 2.734375,-7.03125 0.5,-4.828125 0.5,-2.515625 0.5,-0.875 1.671875,0.21875 3.203125,0.21875 c 0.859375,0 1.625,-0.390625 2.15625,-0.859375 0.921875,-0.8125 1.09375,-1.71875 1.09375,-1.75 C 6.453125,-2.5 6.34375,-2.5 6.328125,-2.5 c -0.0625,0 -0.109375,0.03125 -0.125,0.109375 -0.09375,0.28125 -0.328125,1 -1.015625,1.578125 -0.6875,0.546875 -1.3125,0.71875 -1.828125,0.71875 -0.890625,0 -1.953125,-0.515625 -1.953125,-2.0625 0,-0.578125 0.203125,-2.1875 1.203125,-3.359375 0.609375,-0.703125 1.546875,-1.203125 2.4375,-1.203125 1.015625,0 1.609375,0.765625 1.609375,1.921875 0,0.40625 -0.03125,0.40625 -0.03125,0.515625 0,0.09375 0.109375,0.09375 0.140625,0.09375 0.125,0 0.125,-0.015625 0.1875,-0.203125 z m 0,0"
           id="path4682" />
      </symbol>
      <symbol
         overflow="visible"
         id="symbol1358">
        <path
           style="stroke:none"
           d=""
           id="path3925" />
      </symbol>
      <symbol
         overflow="visible"
         id="symbol4784">
        <path
           style="stroke:none"
           d="m 2.015625,-3.296875 c 0.0625,-0.109375 0.0625,-0.171875 0.0625,-0.21875 0,-0.21875 -0.1875,-0.375 -0.40625,-0.375 -0.265625,0 -0.34375,0.21875 -0.375,0.328125 L 0.375,-0.546875 c -0.015625,0.015625 -0.046875,0.09375 -0.046875,0.109375 0,0.078125 0.21875,0.15625 0.28125,0.15625 0.046875,0 0.046875,-0.015625 0.09375,-0.125 z m 0,0"
           id="path693" />
      </symbol>
    </g>
    <g
       id="g6273">
      <symbol
         overflow="visible"
         id="symbol6900">
        <path
           style="stroke:none"
           d=""
           id="path5571" />
      </symbol>
      <symbol
         overflow="visible"
         id="symbol4997">
        <path
           style="stroke:none"
           d="m 3.703125,-3.25 c 0.09375,-0.09375 0.09375,-0.140625 0.09375,-0.15625 0,-0.046875 -0.03125,-0.109375 -0.0625,-0.140625 L 1.6875,-6.5 h 2.296875 c 1.6875,0 2.1875,0.359375 2.390625,1.9375 h 0.25 l -0.28125,-2.25 H 0.8125 c -0.234375,0 -0.25,0 -0.25,0.234375 l 2.484375,3.609375 -2.375,2.703125 C 0.5625,-0.15625 0.5625,-0.140625 0.5625,-0.109375 0.5625,0 0.671875,0 0.8125,0 H 6.34375 L 6.625,-2.359375 h -0.25 c -0.171875,1.671875 -0.859375,1.9375 -2.421875,1.9375 h -2.75 z m 0,0"
           id="path396" />
      </symbol>
      <symbol
         overflow="visible"
         id="symbol9785">
        <path
           style="stroke:none"
           d=""
           id="path3234" />
      </symbol>
      <symbol
         overflow="visible"
         id="symbol6480">
        <path
           style="stroke:none"
           d="M 1.78125,-1.140625 C 1.390625,-0.484375 1,-0.34375 0.5625,-0.3125 0.4375,-0.296875 0.34375,-0.296875 0.34375,-0.109375 0.34375,-0.046875 0.40625,0 0.484375,0 0.75,0 1.0625,-0.03125 1.328125,-0.03125 c 0.34375,0 0.6875,0.03125 1,0.03125 0.0625,0 0.1875,0 0.1875,-0.1875 0,-0.109375 -0.078125,-0.125 -0.15625,-0.125 -0.21875,-0.015625 -0.46875,-0.09375 -0.46875,-0.34375 0,-0.125 0.0625,-0.234375 0.140625,-0.375 l 0.765625,-1.265625 h 2.5 c 0.015625,0.203125 0.15625,1.5625 0.15625,1.65625 0,0.296875 -0.515625,0.328125 -0.71875,0.328125 C 4.59375,-0.3125 4.5,-0.3125 4.5,-0.109375 4.5,0 4.609375,0 4.640625,0 5.046875,0 5.46875,-0.03125 5.875,-0.03125 6.125,-0.03125 6.765625,0 7.015625,0 7.0625,0 7.1875,0 7.1875,-0.203125 7.1875,-0.3125 7.09375,-0.3125 6.953125,-0.3125 6.34375,-0.3125 6.34375,-0.375 6.3125,-0.671875 l -0.609375,-6.21875 c -0.015625,-0.203125 -0.015625,-0.25 -0.1875,-0.25 -0.15625,0 -0.203125,0.078125 -0.265625,0.171875 z M 2.984375,-2.609375 4.9375,-5.90625 5.265625,-2.609375 Z m 0,0"
           id="path9208" />
      </symbol>
      <symbol
         overflow="visible"
         id="symbol3166">
        <path
           style="stroke:none"
           d=""
           id="path720" />
      </symbol>
      <symbol
         overflow="visible"
         id="symbol952">
        <path
           style="stroke:none"
           d="m 2.015625,-3.296875 c 0.0625,-0.109375 0.0625,-0.171875 0.0625,-0.21875 0,-0.21875 -0.1875,-0.375 -0.40625,-0.375 -0.265625,0 -0.34375,0.21875 -0.375,0.328125 L 0.375,-0.546875 c -0.015625,0.015625 -0.046875,0.09375 -0.046875,0.109375 0,0.078125 0.21875,0.15625 0.28125,0.15625 0.046875,0 0.046875,-0.015625 0.09375,-0.125 z m 0,0"
           id="path988" />
      </symbol>
    </g>
  </defs>
  <sodipodi:namedview
     id="base"
     pagecolor="#ffffff"
     bordercolor="#666666"
     borderopacity="1.0"
     inkscape:pageopacity="0.0"
     inkscape:pageshadow="2"
     inkscape:zoom="1.4142136"
     inkscape:cx="124.02698"
     inkscape:cy="72.911719"
     inkscape:document-units="mm"
     inkscape:current-layer="layer1"
     inkscape:document-rotation="0"
     showgrid="false"
     inkscape:window-width="1920"
     inkscape:window-height="1051"
     inkscape:window-x="-9"
     inkscape:window-y="-9"
     inkscape:window-maximized="1" />
  <metadata
     id="metadata5">
    <rdf:RDF>
      <cc:Work
         rdf:about="">
        <dc:format>image/svg+xml</dc:format>
        <dc:type
           rdf:resource="http://purl.org/dc/dcmitype/StillImage" />
        <dc:title />
      </cc:Work>
    </rdf:RDF>
  </metadata>
  <g
     inkscape:label="Layer 1"
     inkscape:groupmode="layer"
     id="layer1"
     transform="translate(-15.952663,-20.155271)">
    <g
       inkscape:label=""
       transform="translate(-76.580673,-19.84375)"
       id="g844"
       style="stroke-linecap:round;stroke-linejoin:round">
      <g
         id="g5851"
         transform="translate(0.26458333)"
         style="stroke-linecap:round;stroke-linejoin:round">
        <g
           style="fill:#000000;fill-opacity:1;stroke-linecap:round;stroke-linejoin:round"
           id="g397">
          <use
             xlink:href="#symbol471"
             x="91.925003"
             y="81.962997"
             id="use7211"
             width="100%"
             height="100%"
             style="stroke-linecap:round;stroke-linejoin:round" />
        </g>
      </g>
    </g>
    <g
       inkscape:label=""
       transform="translate(-33.461683,-19.827213)"
       id="g877"
       style="stroke-linecap:round;stroke-linejoin:round">
      <g
         id="g7391"
         style="stroke-linecap:round;stroke-linejoin:round">
        <g
           style="fill:#000000;fill-opacity:1;stroke-linecap:round;stroke-linejoin:round"
           id="g9143">
          <use
             xlink:href="#symbol5532"
             x="91.925003"
             y="81.962997"
             id="use1078"
             width="100%"
             height="100%"
             style="stroke-linecap:round;stroke-linejoin:round" />
        </g>
      </g>
    </g>
    <g
       inkscape:label=""
       transform="translate(8.469465,-20.022516)"
       id="g919"
       style="stroke-linecap:round;stroke-linejoin:round">
      <g
         id="g5263"
         style="stroke-linecap:round;stroke-linejoin:round">
        <g
           style="fill:#000000;fill-opacity:1;stroke-linecap:round;stroke-linejoin:round"
           id="g1914">
          <use
             xlink:href="#symbol6359"
             x="91.925003"
             y="81.962997"
             id="use9939"
             width="100%"
             height="100%"
             style="stroke-linecap:round;stroke-linejoin:round" />
        </g>
      </g>
    </g>
    <path
       style="fill:none;stroke:#000000;stroke-width:0.6;stroke-linecap:round;stroke-linejoin:round;stroke-miterlimit:4;stroke-dasharray:none;stroke-opacity:1;marker-end:url(#Arrow1Send)"
       d="m 26.738572,58.932928 c 9.585525,0 19.170856,0 28.755988,0"
       id="path934"
       inkscape:path-effect="#path-effect936"
       inkscape:original-d="m 26.738572,58.932928 c 9.585525,1.97e-4 19.170856,1.97e-4 28.755988,0" />
    <path
       style="fill:none;stroke:#000000;stroke-width:0.6;stroke-linecap:round;stroke-linejoin:round;stroke-miterlimit:4;stroke-dasharray:none;stroke-opacity:1;marker-end:url(#marker1582)"
       d="m 68.542739,58.932928 c 9.585525,0 19.170851,0 28.755991,0"
       id="path1576"
       inkscape:path-effect="#path-effect1578"
       inkscape:original-d="m 68.542739,58.932928 c 9.585525,1.97e-4 19.170851,1.97e-4 28.755991,0" />
    <path
       style="fill:none;stroke:#000000;stroke-width:0.6;stroke-linecap:round;stroke-linejoin:round;stroke-miterlimit:4;stroke-dasharray:none;stroke-opacity:1;marker-end:url(#marker1646)"
       d="m 110.34691,58.932928 c 9.58552,0 19.17085,0 28.75599,0"
       id="path1640"
       inkscape:path-effect="#path-effect1642"
       inkscape:original-d="m 110.34691,58.932928 c 9.58552,1.97e-4 19.17085,1.97e-4 28.75599,0" />
    <path
       style="fill:none;stroke:#000000;stroke-width:0.6;stroke-linecap:round;stroke-linejoin:round;stroke-miterlimit:4;stroke-dasharray:none;stroke-opacity:1;marker-end:url(#marker1800)"
       d="m 26.738572,24.537094 c 9.585525,0 19.170856,0 28.755988,0"
       id="path1766"
       inkscape:path-effect="#path-effect1768"
       inkscape:original-d="m 26.738572,24.537094 c 9.585525,1.97e-4 19.170856,1.97e-4 28.755988,0" />
    <path
       style="fill:none;stroke:#000000;stroke-width:0.6;stroke-linecap:round;stroke-linejoin:round;stroke-miterlimit:4;stroke-dasharray:none;stroke-opacity:1;marker-end:url(#marker1790)"
       d="m 68.542739,24.537094 c 9.585525,0 19.170851,0 28.755991,0"
       id="path1770"
       inkscape:path-effect="#path-effect1772"
       inkscape:original-d="m 68.542739,24.537094 c 9.585525,1.97e-4 19.170851,1.97e-4 28.755991,0" />
    <path
       style="fill:none;stroke:#000000;stroke-width:0.6;stroke-linecap:round;stroke-linejoin:round;stroke-miterlimit:4;stroke-dasharray:none;stroke-opacity:1;marker-end:url(#marker1780)"
       d="m 110.34691,24.537094 c 9.58552,0 19.17085,0 28.75599,0"
       id="path1774"
       inkscape:path-effect="#path-effect1776"
       inkscape:original-d="m 110.34691,24.537094 c 9.58552,1.97e-4 19.17085,1.97e-4 28.75599,0" />
    <g
       inkscape:label=""
       transform="translate(50.288078,-19.764788)"
       id="g2001"
       style="stroke-linecap:round;stroke-linejoin:round">
      <g
         id="g4643"
         style="stroke-linecap:round;stroke-linejoin:round">
        <g
           style="fill:#000000;fill-opacity:1;stroke-linecap:round;stroke-linejoin:round"
           id="g3877">
          <use
             xlink:href="#symbol5627"
             x="91.925003"
             y="81.962997"
             id="use1067"
             width="100%"
             height="100%"
             style="stroke-linecap:round;stroke-linejoin:round" />
        </g>
        <g
           style="fill:#000000;fill-opacity:1;stroke-linecap:round;stroke-linejoin:round"
           id="g5701">
          <use
             xlink:href="#symbol4387"
             x="99.121002"
             y="81.962997"
             id="use2873"
             width="100%"
             height="100%"
             style="stroke-linecap:round;stroke-linejoin:round" />
        </g>
      </g>
    </g>
    <g
       inkscape:label=""
       transform="translate(-37.023433,-54.073515)"
       id="g2110"
       style="stroke-linecap:round;stroke-linejoin:round">
      <g
         id="g8561"
         style="stroke-linecap:round;stroke-linejoin:round">
        <g
           style="fill:#000000;fill-opacity:1;stroke-linecap:round;stroke-linejoin:round"
           id="g7142">
          <use
             xlink:href="#symbol1364"
             x="91.925003"
             y="81.962997"
             id="use2692"
             width="100%"
             height="100%"
             transform="translate(-38.232292)"
             style="stroke-linecap:round;stroke-linejoin:round" />
        </g>
        <g
           style="fill:#000000;fill-opacity:1;stroke-linecap:round;stroke-linejoin:round"
           id="g5627">
          <use
             xlink:href="#symbol9731"
             x="99.397003"
             y="78.348"
             id="use7013"
             width="100%"
             height="100%"
             transform="translate(-38.785603)"
             style="stroke-linecap:round;stroke-linejoin:round" />
        </g>
      </g>
    </g>
    <g
       inkscape:label=""
       transform="translate(-34.479993,-54.078019)"
       id="g2234"
       style="stroke-linecap:round;stroke-linejoin:round">
      <g
         id="g9407"
         style="stroke-linecap:round;stroke-linejoin:round">
        <g
           style="fill:#000000;fill-opacity:1;stroke-linecap:round;stroke-linejoin:round"
           id="g6641">
          <use
             xlink:href="#symbol127"
             x="91.925003"
             y="81.962997"
             id="use415"
             width="100%"
             height="100%"
             style="stroke-linecap:round;stroke-linejoin:round" />
        </g>
        <g
           style="fill:#000000;fill-opacity:1;stroke-linecap:round;stroke-linejoin:round"
           id="g7367">
          <use
             xlink:href="#symbol7590"
             x="99.982002"
             y="78.348"
             id="use851"
             width="100%"
             height="100%"
             style="stroke-linecap:round;stroke-linejoin:round" />
        </g>
      </g>
    </g>
    <g
       inkscape:label=""
       transform="translate(7.9643555,-54.302104)"
       id="g2373"
       style="stroke-linecap:round;stroke-linejoin:round">
      <g
         id="g4031"
         style="stroke-linecap:round;stroke-linejoin:round">
        <g
           style="fill:#000000;fill-opacity:1;stroke-linecap:round;stroke-linejoin:round"
           id="g6456">
          <use
             xlink:href="#symbol388"
             x="91.925003"
             y="81.962997"
             id="use2361"
             width="100%"
             height="100%"
             style="stroke-linecap:round;stroke-linejoin:round" />
        </g>
        <g
           style="fill:#000000;fill-opacity:1;stroke-linecap:round;stroke-linejoin:round"
           id="g4535">
          <use
             xlink:href="#symbol4784"
             x="99.758003"
             y="78.348"
             id="use5726"
             width="100%"
             height="100%"
             style="stroke-linecap:round;stroke-linejoin:round" />
        </g>
      </g>
    </g>
    <g
       inkscape:label=""
       transform="translate(50.286377,-54.091235)"
       id="g2534"
       style="stroke-linecap:round;stroke-linejoin:round">
      <g
         id="g2827"
         style="stroke-linecap:round;stroke-linejoin:round">
        <g
           style="fill:#000000;fill-opacity:1;stroke-linecap:round;stroke-linejoin:round"
           id="g6836">
          <use
             xlink:href="#symbol4997"
             x="91.925003"
             y="81.962997"
             id="use2526"
             width="100%"
             height="100%"
             style="stroke-linecap:round;stroke-linejoin:round" />
        </g>
        <g
           style="fill:#000000;fill-opacity:1;stroke-linecap:round;stroke-linejoin:round"
           id="g6814">
          <use
             xlink:href="#symbol6480"
             x="99.121002"
             y="81.962997"
             id="use2382"
             width="100%"
             height="100%"
             style="stroke-linecap:round;stroke-linejoin:round" />
        </g>
        <g
           style="fill:#000000;fill-opacity:1;stroke-linecap:round;stroke-linejoin:round"
           id="g6903">
          <use
             xlink:href="#symbol952"
             x="106.593"
             y="78.348"
             id="use1129"
             width="100%"
             height="100%"
             style="stroke-linecap:round;stroke-linejoin:round" />
        </g>
      </g>
    </g>
    <path
       style="fill:none;stroke:#000000;stroke-width:0.6;stroke-linecap:round;stroke-linejoin:round;stroke-miterlimit:4;stroke-dasharray:none;stroke-opacity:1;marker-end:url(#marker2571)"
       d="m 20.459756,30.855988 c 0,7.04977 0,14.099273 0,21.148511"
       id="path2559"
       inkscape:path-effect="#path-effect2561"
       inkscape:original-d="m 20.459756,30.855988 c 2.64e-4,7.04977 2.64e-4,14.099273 0,21.148511" />
    <path
       style="fill:none;stroke:#000000;stroke-width:0.6;stroke-linecap:round;stroke-linejoin:round;stroke-miterlimit:4;stroke-dasharray:none;stroke-opacity:1;marker-end:url(#marker2651)"
       d="m 61.984383,30.855988 c 0,7.04977 0,14.099273 0,21.148511"
       id="path2645"
       inkscape:path-effect="#path-effect2647"
       inkscape:original-d="m 61.984383,30.855988 c 2.64e-4,7.04977 2.64e-4,14.099273 0,21.148511" />
    <path
       style="fill:none;stroke:#000000;stroke-width:0.6;stroke-linecap:round;stroke-linejoin:round;stroke-miterlimit:4;stroke-dasharray:0.6, 1.2;stroke-dashoffset:0;stroke-opacity:1;marker-end:url(#marker2763)"
       d="m 103.88756,30.855988 c 0,7.04977 0,14.099273 0,21.148511"
       id="path2757"
       inkscape:path-effect="#path-effect2759"
       inkscape:original-d="m 103.88756,30.855988 c 2.6e-4,7.04977 2.6e-4,14.099273 0,21.148511" />
    <path
       style="fill:none;stroke:#000000;stroke-width:0.6;stroke-linecap:round;stroke-linejoin:round;stroke-miterlimit:4;stroke-dasharray:none;stroke-opacity:1;marker-end:url(#marker2877)"
       d="m 149.90155,30.855988 c 0,7.04977 0,14.099273 0,21.148511"
       id="path2871"
       inkscape:path-effect="#path-effect2873"
       inkscape:original-d="m 149.90155,30.855988 c 2.6e-4,7.04977 2.6e-4,14.099273 0,21.148511" />
  </g>
</svg>
